<svg width="172" height="42" viewBox="0 0 172 42" fill="none" xmlns="http://www.w3.org/2000/svg">
<g clip-path="url(#clip0_645_92)">
<path d="M38.0048 10.8757C36.78 11.4041 35.4472 11.7843 34.0743 11.9324C35.4997 11.0856 36.5671 9.74779 37.0762 8.16997C35.7387 8.96564 34.2734 9.52358 32.7454 9.81904C32.1068 9.1363 31.3344 8.5924 30.4764 8.22123C29.6183 7.85006 28.693 7.65957 27.7582 7.66164C23.9757 7.66164 20.9338 10.7276 20.9338 14.4901C20.9338 15.0184 20.9978 15.5468 21.1019 16.0551C15.4382 15.7589 10.3869 13.0531 7.02873 8.91045C6.41683 9.95559 6.09618 11.1456 6.10013 12.3567C6.10013 14.7262 7.30491 16.8156 9.1421 18.0444C8.05942 18.0017 7.00208 17.7041 6.0561 17.1758V17.2599C6.0561 20.578 8.40162 23.3278 11.5276 23.9602C10.9407 24.1127 10.3369 24.1907 9.73048 24.1924C9.28619 24.1924 8.86592 24.1483 8.44165 24.0883C9.30621 26.7941 11.8238 28.7593 14.8218 28.8234C12.4763 30.6606 9.53836 31.7413 6.34829 31.7413C5.77592 31.7413 5.24757 31.7213 4.69922 31.6572C7.72518 33.5985 11.3155 34.7192 15.182 34.7192C27.7342 34.7192 34.6026 24.3204 34.6026 15.2946C34.6026 14.9984 34.6026 14.7022 34.5826 14.406C35.9115 13.4334 37.0762 12.2286 38.0048 10.8757Z" fill="#EF2779"/>
<path d="M101.072 5.18018H71.6129C70.9044 5.18018 70.332 5.75255 70.332 6.46101V35.9201C70.332 36.6286 70.9044 37.201 71.6129 37.201H101.072C101.78 37.201 102.353 36.6286 102.353 35.9201V6.46101C102.353 5.75255 101.78 5.18018 101.072 5.18018ZM97.3736 14.5262H94.8159C92.8106 14.5262 92.4224 15.4789 92.4224 16.8798V19.9658H97.2095L96.5851 24.7969H92.4224V37.201H87.4311V24.8009H83.2564V19.9658H87.4311V16.4035C87.4311 12.2688 89.9568 10.0153 93.6472 10.0153C95.4163 10.0153 96.9333 10.1474 97.3776 10.2074V14.5262H97.3736Z" fill="#EF2779"/>
<path d="M166.056 5.18018H136.597C135.889 5.18018 135.316 5.75255 135.316 6.46101V35.9201C135.316 36.6286 135.889 37.201 136.597 37.201H166.056C166.765 37.201 167.337 36.6286 167.337 35.9201V6.46101C167.337 5.75255 166.765 5.18018 166.056 5.18018ZM144.815 32.4659H140.063V17.184H144.815V32.4659ZM142.441 15.0946C141.896 15.0946 141.364 14.9331 140.911 14.6305C140.458 14.3279 140.105 13.8978 139.897 13.3947C139.688 12.8915 139.634 12.3378 139.74 11.8036C139.846 11.2694 140.109 10.7787 140.494 10.3936C140.879 10.0085 141.37 9.7462 141.904 9.63995C142.438 9.53369 142.992 9.58823 143.495 9.79665C143.998 10.0051 144.428 10.358 144.731 10.8109C145.033 11.2638 145.195 11.7962 145.195 12.3408C145.191 13.8618 143.958 15.0946 142.441 15.0946ZM162.602 32.4659H157.855V25.0331C157.855 23.2599 157.823 20.9824 155.385 20.9824C152.916 20.9824 152.536 22.9117 152.536 24.905V32.4659H147.793V17.184H152.347V19.2733H152.411C153.044 18.0725 154.593 16.8037 156.906 16.8037C161.718 16.8037 162.602 19.9698 162.602 24.0844V32.4659Z" fill="#EF2779"/>
</g>
<defs>
<clipPath id="clip0_645_92">
<rect width="170.96" height="40.9866" fill="white" transform="translate(0.859375 0.697266)"/>
</clipPath>
</defs>
</svg>
